HIERARCHY
ROOT root
{
	OFFSET	0	13.1	24.9
	CHANNELS 6  Xposition Yposition Zposition Xrotation Yrotation Zrotation
	JOINT spine_1
	{
		OFFSET	0	9.99999	0
		CHANNELS 3  Xrotation Yrotation Zrotation
		JOINT spine_2
		{
			OFFSET	0	112	-10
			CHANNELS 3  Xrotation Yrotation Zrotation
			JOINT spine_3
			{
				OFFSET	0	206.5	19.3
				CHANNELS 3  Xrotation Yrotation Zrotation
				JOINT spine_4
				{
					OFFSET	0	110.4	14.6
					CHANNELS 3  Xrotation Yrotation Zrotation
					JOINT neck_1
					{
						OFFSET	0	71.8	-50.3
						CHANNELS 3  Xrotation Yrotation Zrotation
						JOINT neck_2
						{
							OFFSET	0	86.2	-25.8
							CHANNELS 3  Xrotation Yrotation Zrotation
							JOINT head_ee
							{
								OFFSET	0	179.8	-8.7
								CHANNELS 3  Xrotation Yrotation Zrotation
								End Site
								{
									OFFSET	1	0	0
								}
							}
						}
					}
					JOINT left_clavicle
					{
						OFFSET	-43.2	22.4	-70.8
						CHANNELS 3  Xrotation Yrotation Zrotation
						JOINT left_shoulder
						{
							OFFSET	-93.9	-5.79999	48.7
							CHANNELS 3  Xrotation Yrotation Zrotation
							JOINT left_elbow
							{
								OFFSET	-291.4	-30.8	15.2
								CHANNELS 3  Xrotation Yrotation Zrotation
								JOINT left_lowarm_twist
								{
									OFFSET	-110.7	-3.89999	13.6
									CHANNELS 3  Xrotation Yrotation Zrotation
									JOINT left_hand
									{
										OFFSET	-110.7	-3.89999	13.6
										CHANNELS 3  Xrotation Yrotation Zrotation
										JOINT left_ee
										{
											OFFSET	-80.8	-5.10001	12.1
											CHANNELS 3  Xrotation Yrotation Zrotation
											End Site
											{
												OFFSET	1	0	0
											}
										}
									}
								}
							}
						}
					}
					JOINT right_clavicle
					{
						OFFSET	43.2	22.4	-70.8
						CHANNELS 3  Xrotation Yrotation Zrotation
						JOINT right_shoulder
						{
							OFFSET	93.9	-5.79999	48.7
							CHANNELS 3  Xrotation Yrotation Zrotation
							JOINT right_elbow
							{
								OFFSET	291.4	-30.8	15.2
								CHANNELS 3  Xrotation Yrotation Zrotation
								JOINT right_lowarm_twist
								{
									OFFSET	110.7	-3.89999	13.6
									CHANNELS 3  Xrotation Yrotation Zrotation
									JOINT right_hand
									{
										OFFSET	110.7	-3.89999	13.6
										CHANNELS 3  Xrotation Yrotation Zrotation
										JOINT right_ee
										{
											OFFSET	80.8	-5.10001	12.1
											CHANNELS 3  Xrotation Yrotation Zrotation
											End Site
											{
												OFFSET	1	0	0
											}
										}
									}
								}
							}
						}
					}
				}
			}
		}
	}
	JOINT left_hip
	{
		OFFSET	-82.8	-127.5	0.300001
		CHANNELS 3  Xrotation Yrotation Zrotation
		JOINT left_knee
		{
			OFFSET	-28.2	-396.7	2.2
			CHANNELS 3  Xrotation Yrotation Zrotation
			JOINT left_ankle
			{
				OFFSET	-11.7	-411.3	35.4
				CHANNELS 3  Xrotation Yrotation Zrotation
				JOINT left_toes
				{
					OFFSET	0	-60	-88.6
					CHANNELS 3  Xrotation Yrotation Zrotation
					JOINT left_foot_ee
					{
						OFFSET	-22.5	-16.5	-42.2
						CHANNELS 3  Xrotation Yrotation Zrotation
						End Site
						{
							OFFSET	1	0	0
						}
					}
				}
			}
		}
	}
	JOINT right_hip
	{
		OFFSET	82.8	-127.5	0.300001
		CHANNELS 3  Xrotation Yrotation Zrotation
		JOINT right_knee
		{
			OFFSET	28.2	-396.7	2.2
			CHANNELS 3  Xrotation Yrotation Zrotation
			JOINT right_ankle
			{
				OFFSET	11.7	-411.3	35.4
				CHANNELS 3  Xrotation Yrotation Zrotation
				JOINT right_toes
				{
					OFFSET	0	-60	-88.6
					CHANNELS 3  Xrotation Yrotation Zrotation
					JOINT right_foot_ee
					{
						OFFSET	22.5	-16.5	-42.2
						CHANNELS 3  Xrotation Yrotation Zrotation
						End Site
						{
							OFFSET	1	0	0
						}
					}
				}
			}
		}
	}
}
MOTION
Frames: 11
Frame Time: 0.02
1750.77 742.802 -704.014 164.936 -74.5018 163.712 -1.20535 -0.00477899 -0.188342 -1.20533 0.00721535 -0.188264 -1.20534 0.0504526 -0.181521 -1.20538 0.0211516 -0.187211 -17.5169 12.3096 13.348 -17.2949 16.3518 16.9811 -0.0 0.0 -0.0 4.87493 18.3836 9.5701 -3.07381 -22.4703 59.36 1.93316 -43.7555 0.776318 -10.343 -0.477063 1.23152 1.32384 12.5787 13.6623 -0.0 0.0 -0.0 11.3318 24.0025 -22.0695 -15.88 10.4079 -56.8399 0.747112 20.3094 -0.133819 61.9548 1.95101 7.28527 4.68926 -3.00844 -34.4645 0.0 0.0 0.0 0.878484 24.8291 -1.10878 -15.9955 0.321828 2.42562 23.4814 5.5684 -3.15351 -30.5557 0.0 0.0 -0.0 0.0 -0.0 9.99192 16.446 -1.36469 -25.2445 -0.196648 -3.83776 14.8893 0.238452 2.09738 -8.3694 0.0 0.0 0.0 0.0 0.0 
1752.7 744.149 -702.027 165.154 -74.986 163.859 -1.16354 0.0195898 -0.216475 -1.16351 0.033325 -0.21479 -1.16362 0.081831 -0.201368 -1.16368 0.0490018 -0.211764 -17.1282 12.5683 13.258 -16.918 16.7958 16.9279 -0.0 0.0 -0.0 4.98597 18.3983 9.74122 -2.73374 -23.1692 58.9942 2.01949 -45.0061 0.836697 -10.3653 -0.478332 1.23408 1.28718 11.9841 13.2117 -0.0 0.0 -0.0 11.5062 24.5796 -22.4083 -16.5857 9.97333 -57.4614 0.682642 18.6836 -0.1123 61.7299 1.93034 7.26518 4.72583 -3.35659 -34.9002 0.0 0.0 0.0 0.943567 24.8081 -1.18975 -16.3989 0.321133 2.48751 23.6636 4.82249 -3.17618 -30.7536 0.0 0.0 -0.0 0.0 -0.0 9.78358 16.6104 -1.32927 -25.0195 -0.202392 -3.80372 15.0971 0.823086 2.12786 -8.31612 0.0 0.0 0.0 0.0 0.0 
1751.05 745.832 -703.051 167.563 -74.4607 166.423 -1.25505 0.0257907 -0.244074 -1.25502 0.0412694 -0.241938 -1.25518 0.0961673 -0.225808 -1.25524 0.0592984 -0.238161 -16.5831 13.0176 14.471 -16.2591 16.8229 18.0989 -0.0 0.0 -0.0 5.02747 19.0678 9.78938 -2.65441 -22.9367 58.6409 2.2294 -47.8331 0.988803 -10.7891 -0.502587 1.28256 1.28182 12.2334 13.2659 -0.0 0.0 -0.0 11.8435 26.1688 -23.0051 -17.1966 9.99272 -57.418 0.64754 17.7849 -0.101316 61.4951 1.90882 7.24411 4.83475 -3.03963 -35.6682 0.0 0.0 0.0 1.54912 24.9389 -1.27974 -16.1813 0.321562 2.45413 22.0096 4.62306 -2.97912 -31.2907 0.0 0.0 -0.0 0.0 -0.0 9.98639 16.458 -1.80166 -22.6893 -0.254012 -3.44988 14.9136 0.59321 2.1024 -8.7585 0.0 0.0 0.0 0.0 0.0 
1753.3 747.031 -701.965 168.581 -74.5251 167.38 -1.27112 -0.00268786 -0.342955 -1.27105 0.0191406 -0.342431 -1.27112 0.0980001 -0.328666 -1.27127 0.0448639 -0.340018 -15.5449 13.4559 14.3657 -15.2183 17.414 17.9765 -0.0 0.0 -0.0 4.97729 20.6386 9.67229 -2.93973 -22.9368 58.5603 2.42251 -50.1878 1.1346 -10.5219 -0.487252 1.25201 1.39271 11.5743 13.7557 -0.0 0.0 -0.0 11.7754 25.8804 -22.8824 -17.8703 9.87327 -56.9434 0.610074 16.8156 -0.0901736 61.2168 1.88344 7.21902 4.99167 -2.88631 -36.9119 0.0 0.0 0.0 2.1234 27.2954 -1.67447 -16.2332 0.321471 2.46209 19.3904 4.87556 -2.65698 -32.3371 0.0 0.0 -0.0 0.0 -0.0 9.64184 16.3931 -1.69838 -21.3147 -0.277698 -3.24028 14.6076 -0.375396 2.05722 -8.73721 0.0 0.0 0.0 0.0 0.0 
1753.7 747.902 -700.292 170.212 -74.9145 169.058 -1.34368 0.0279409 -0.403684 -1.3436 0.0535715 -0.401088 -1.34392 0.145572 -0.377559 -1.34411 0.084117 -0.39581 -14.4043 13.8648 14.5421 -14.0381 17.7385 18.0808 -0.0 0.0 -0.0 4.98268 19.9378 9.69936 -2.61842 -23.0352 58.3802 2.51518 -51.2412 1.20634 -11.1699 -0.524692 1.32598 1.24237 11.878 12.8815 -0.0 0.0 -0.0 11.8996 27.6174 -22.9609 -18.3846 9.52848 -57.3036 0.596155 16.4529 -0.0861892 61.2599 1.88737 7.22291 5.03972 -2.58811 -37.1939 0.0 0.0 0.0 2.63945 25.0801 -1.49582 -15.2914 0.321996 2.3176 19.0311 5.32444 -2.61128 -32.1293 0.0 0.0 -0.0 0.0 -0.0 9.7501 16.623 -1.99662 -20.0208 -0.295392 -3.04254 13.773 0.0897338 1.94839 -9.41458 0.0 0.0 0.0 0.0 0.0 
1756.76 748.163 -699.495 170.189 -75.259 168.979 -1.31854 -0.00227072 -0.407538 -1.31845 0.0236663 -0.406856 -1.31855 0.117661 -0.39019 -1.31876 0.0545618 -0.403875 -14.5063 13.9277 14.5845 -14.1431 17.8666 18.1569 -0.0 0.0 -0.0 5.06778 20.3526 9.81514 -2.90298 -23.0135 58.3906 2.58502 -52.0044 1.26108 -11.474 -0.542553 1.36055 1.24004 12.2576 13.0025 -0.0 0.0 -0.0 11.8195 27.2958 -22.8182 -18.7366 9.96947 -57.291 0.58235 16.0919 -0.0823208 60.979 1.86185 7.19749 5.06306 -2.74847 -37.4571 0.0 0.0 0.0 2.4829 25.191 -1.43208 -16.2511 0.321438 2.46484 18.0567 5.06344 -2.48883 -32.3746 0.0 0.0 -0.0 0.0 -0.0 9.34728 16.6534 -1.90364 -19.9963 -0.295683 -3.0388 14.2821 -1.1357 2.01089 -9.30116 0.0 0.0 0.0 0.0 0.0 
1763.71 748.193 -696.182 170.925 -76.2742 169.772 -1.27973 -0.0146731 -0.400958 -1.27964 0.0108704 -0.401079 -1.27966 0.103609 -0.387618 -1.27986 0.0410919 -0.399116 -14.3312 14.3518 14.3181 -14.0107 18.7903 18.019 -0.0 0.0 -0.0 5.21509 20.3856 10.0339 -2.96775 -23.0123 58.1732 2.57957 -51.9457 1.25679 -11.6692 -0.554113 1.38268 1.18668 12.0839 12.593 -0.0 0.0 -0.0 11.8742 26.6715 -23.0169 -19.8738 10.078 -57.5948 0.538215 14.9289 -0.070518 60.6649 1.83348 7.16892 5.07913 -2.76073 -37.5981 0.0 0.0 0.0 2.87832 25.2171 -1.77479 -16.2193 0.321496 2.45995 16.509 6.01847 -2.2896 -32.4541 0.0 0.0 -0.0 0.0 -0.0 8.85493 16.7136 -1.89276 -20.1061 -0.294363 -3.05559 14.6973 0.247127 2.07204 -9.46124 0.0 0.0 0.0 0.0 0.0 
1767.18 747.201 -694.787 172.521 -77.3128 171.516 -1.24873 0.0207957 -0.470978 -1.24861 0.0507228 -0.4687 -1.24895 0.157824 -0.444235 -1.24922 0.0856849 -0.463585 -13.452 14.3861 13.4099 -13.1846 19.1428 17.0413 -0.0 0.0 -0.0 5.1005 20.2536 9.86697 -3.17574 -23.5173 58.4803 2.78465 -54.0504 1.4206 -12.2163 -0.58692 1.44453 1.10609 11.9324 12.0147 -0.0 0.0 -0.0 12.0148 27.0339 -23.2941 -19.4347 10.1522 -57.907 0.427102 11.9463 -0.0446882 60.209 1.79257 7.12718 5.18134 -2.83512 -38.5006 0.0 0.0 0.0 2.92774 25.2762 -1.97803 -14.9954 0.32167 2.27219 16.3943 5.89374 -2.27492 -32.808 0.0 0.0 -0.0 0.0 -0.0 8.7504 16.718 -1.82255 -19.6773 -0.299339 -2.98998 14.8953 -0.137186 2.09634 -8.99208 0.0 0.0 0.0 0.0 0.0 
1772.61 746.199 -693.031 172.808 -77.7298 171.723 -1.26481 -0.00884774 -0.491054 -1.26468 0.0224169 -0.490622 -1.26477 0.13549 -0.472076 -1.26508 0.0592346 -0.487549 -11.5674 14.8016 13.5797 -11.2252 19.2347 17.0098 -0.0 0.0 -0.0 4.94467 20.3142 9.63261 -4.29018 -23.7397 58.5515 2.75962 -53.8044 1.40037 -12.6616 -0.614054 1.49463 1.05696 12.1626 11.7799 -0.0 0.0 -0.0 12.0421 26.6451 -23.4026 -19.8685 11.1449 -57.4171 0.412424 11.547 -0.0417001 60.279 1.79883 7.13361 5.6276 -1.92592 -42.0466 0.0 0.0 0.0 2.90886 25.4082 -1.9336 -15.1772 0.321898 2.30008 17.6592 5.83283 -2.43724 -32.9325 0.0 0.0 -0.0 0.0 -0.0 8.28669 16.5675 -1.53713 -19.8165 -0.297777 -3.01128 15.8152 -1.40255 2.21141 -7.13897 0.0 0.0 0.0 0.0 0.0 
1779.92 742.962 -691.432 172.549 -77.3265 171.605 -1.12842 -0.0165643 -0.481308 -1.12829 0.0140958 -0.481387 -1.12832 0.124147 -0.465317 -1.12862 0.0491015 -0.479083 -11.3004 14.9945 12.891 -11.0149 19.974 16.3742 -0.0 0.0 -0.0 4.40412 19.9772 8.83208 -5.45649 -23.2765 59.1969 2.8702 -54.8696 1.49021 -13.0105 -0.635593 1.53374 0.896805 12.0006 10.6852 -0.0 0.0 -0.0 12.0922 26.5387 -23.5295 -19.1815 10.1477 -57.4169 0.342633 9.63323 -0.0288719 60.1134 1.78404 7.11838 5.59528 -2.58345 -42.0439 0.0 0.0 0.0 2.76775 21.8529 -1.86031 -16.7474 0.320183 2.54098 18.9407 6.98055 -2.59855 -32.4402 0.0 0.0 -0.0 0.0 -0.0 7.4046 16.8672 -1.53888 -19.5397 -0.300831 -2.96893 16.433 0.38949 2.30039 -7.52906 0.0 0.0 0.0 0.0 0.0 
1784.08 743.988 -688.16 174.18 -78.0922 172.936 -1.01915 -0.0227793 -0.465783 -1.01903 0.00690553 -0.466289 -1.019 0.112821 -0.452487 -1.01928 0.0399444 -0.464626 -11.7387 15.1199 13.1919 -11.4498 20.1539 16.7626 -0.0 0.0 -0.0 4.35647 20.0381 8.76036 -6.73066 -23.3829 59.4102 2.9394 -55.5089 1.54703 -14.1387 -0.706853 1.65931 0.787567 14.117 10.7631 -0.0 0.0 -0.0 12.138 25.4927 -23.753 -18.9965 10.6321 -56.9543 0.356044 10.0028 -0.0311588 60.201 1.79186 7.12644 5.61628 -2.81697 -42.3368 0.0 0.0 0.0 3.36621 24.8383 -1.81471 -15.7042 0.322058 2.38093 18.7548 7.68513 -2.57525 -32.5246 0.0 0.0 -0.0 0.0 -0.0 6.69427 16.9395 -1.56108 -17.7658 -0.315541 -2.69716 17.0127 -0.970612 2.36848 -6.55983 0.0 0.0 0.0 0.0 0.0 
